<svg xmlns="http://www.w3.org/2000/svg" version="1.1" xmlns:xlink="http://www.w3.org/1999/xlink" xmlns:svgjs="http://svgjs.dev/svgjs" width="1000" height="1000" viewBox="0 0 1000 1000"><rect width="1000" height="1000" fill="#000000"></rect><g transform="matrix(0.7,0,0,0.7,149.5757575757575,343.94784548221526)"><svg viewBox="0 0 396 177" data-background-color="#f9e17e" preserveAspectRatio="xMidYMid meet" height="446" width="1000" xmlns="http://www.w3.org/2000/svg" xmlns:xlink="http://www.w3.org/1999/xlink"><g id="tight-bounds" transform="matrix(1,0,0,1,0.24000000000003752,-0.027125721819700743)"><svg viewBox="0 0 395.5199999999999 177.0542514436394" height="177.0542514436394" width="395.5199999999999"><g><svg viewBox="0 0 630.4526738355928 282.22169861600383" height="177.0542514436394" width="395.5199999999999"><g transform="matrix(1,0,0,1,232.95507383559294,87.21060129119446)"><svg viewBox="0 0 397.4975999999999 107.8004960336149" height="107.8004960336149" width="397.4975999999999"><g id="textblocktransform"><svg viewBox="0 0 397.4975999999999 107.8004960336149" height="107.8004960336149" width="397.4975999999999" id="textblock"><g><rect width="397.4975999999999" height="5.5683541368562" x="0" y="68.30598017443191" fill="#ffffff" opacity="1" stroke-width="0" stroke="transparent" fill-opacity="1" class="rect-o-0" data-fill-palette-color="primary" rx="1%" id="o-0" data-palette-color="#454545"></rect></g><g transform="matrix(1,0,0,1,0.9887999999999693,0)"><svg viewBox="0 0 395.52 61.74640069384214" height="61.74640069384214" width="395.52"><g transform="matrix(1,0,0,1,0,0)"><svg width="395.52" viewBox="2.6500000953674316 -35.5 230.5800018310547 36" height="61.74640069384214" data-palette-color="#454545"><path d="M3.9-26.35L3.9-26.35Q3.9-31.2 6.35-33.35 8.8-35.5 14.3-35.5L14.3-35.5Q18.15-35.5 20.5-33.5 22.85-31.5 23.9-27.4L23.9-27.4 19.25-23.9 16.8-23.9 22.2-27.95Q21.15-31.3 19.18-32.65 17.2-34 14.3-34L14.3-34Q12.3-34 10.93-33.75 9.55-33.5 8.18-32.77 6.8-32.05 6.1-30.45 5.4-28.85 5.4-26.35L5.4-26.35Q5.4-24.15 7.43-22.45 9.45-20.75 12.35-19.55 15.25-18.35 18.18-17.1 21.1-15.85 23.13-13.9 25.15-11.95 25.15-9.4L25.15-9.4Q25.15-4.4 22.68-1.95 20.2 0.5 14.2 0.5L14.2 0.5Q9.3 0.5 6.5-1.48 3.7-3.45 2.65-7.6L2.65-7.6 4.05-8.2Q5.05-4.15 7.48-2.58 9.9-1 14.2-1L14.2-1Q19-1 21.33-2.85 23.65-4.7 23.65-9.4L23.65-9.4Q23.65-11.6 21.63-13.3 19.6-15 16.68-16.2 13.75-17.4 10.85-18.65 7.95-19.9 5.93-21.85 3.9-23.8 3.9-26.35ZM28.8-35L53.8-35 53.8-33.5 42.05-33.5 42.05 0 40.55 0 40.55-33.5 28.8-33.5 28.8-35ZM63.2-33.5L63.2-35 82.34-35 82.34-15.05Q82.34-7.05 79.59-3.28 76.84 0.5 70.7 0.5 64.55 0.5 61.8-3.28 59.05-7.05 59.05-15.05L59.05-15.05 59.05-35 60.55-35 60.55-15.05Q60.55-10.9 61.25-8.08 61.95-5.25 63.34-3.75 64.75-2.25 66.5-1.63 68.25-1 70.7-1 73.15-1 74.9-1.63 76.65-2.25 78.05-3.75 79.45-5.25 80.15-8.08 80.84-10.9 80.84-15.05L80.84-15.05 80.84-33.5 63.2-33.5ZM96.59 0L96.59 0 91.79 0 91.79-35 96.59-35Q103.79-35 108.79-29.7 113.79-24.4 113.79-17.5 113.79-10.6 108.79-5.3 103.79 0 96.59 0ZM93.29-1.5L96.59-1.5Q103.14-1.5 107.72-6.33 112.29-11.15 112.29-17.5 112.29-23.85 107.72-28.68 103.14-33.5 96.59-33.5L96.59-33.5 93.29-33.5 93.29-1.5ZM123.14-33.5L123.14-35 143.39-35 130.89-15 130.89 0 129.39 0 129.39-15 116.89-35 118.64-35 130.14-16.65 140.69-33.5 123.14-33.5ZM169.74-35L169.74 0 168.24 0 168.24-17.5 150.24-17.5 150.24 0 148.74 0 148.74-35 150.24-35 150.24-19 168.24-19 168.24-35 169.74-35ZM183.34-33.5L183.34-35 202.49-35 202.49-15.05Q202.49-7.05 199.74-3.28 196.99 0.5 190.84 0.5 184.69 0.5 181.94-3.28 179.19-7.05 179.19-15.05L179.19-15.05 179.19-35 180.69-35 180.69-15.05Q180.69-10.9 181.39-8.08 182.09-5.25 183.49-3.75 184.89-2.25 186.64-1.63 188.39-1 190.84-1 193.29-1 195.04-1.63 196.79-2.25 198.19-3.75 199.59-5.25 200.29-8.08 200.99-10.9 200.99-15.05L200.99-15.05 200.99-33.5 183.34-33.5ZM219.93 0L219.93 0 211.93 0 211.93-35 218.03-35Q224.63-35 227.98-32.58 231.33-30.15 231.33-25.75L231.33-25.75Q231.33-20.75 227.13-18.4L227.13-18.4Q233.23-16.1 233.23-9.75L233.23-9.75Q233.23-5.25 229.93-2.63 226.63 0 219.93 0ZM213.43-1.5L219.93-1.5Q222.28-1.5 224.23-1.88 226.18-2.25 227.96-3.13 229.73-4 230.73-5.7 231.73-7.4 231.73-9.75L231.73-9.75Q231.73-15.1 226.58-17L226.58-17 223.58-18.1 226.38-19.7Q229.83-21.6 229.83-25.75L229.83-25.75Q229.83-33.5 218.03-33.5L218.03-33.5 213.43-33.5 213.43-1.5Z" opacity="1" transform="matrix(1,0,0,1,0,0)" fill="#ffffff" class="wordmark-text-0" data-fill-palette-color="primary" id="text-0"></path></svg></g></svg></g><g transform="matrix(1,0,0,1,0,80.43391379187787)"><svg viewBox="0 0 232.20979200000002 27.366582241737035" height="27.366582241737035" width="232.20979200000002"><g transform="matrix(1,0,0,1,0,0)"><svg width="232.20979200000002" viewBox="0.4399999976158142 -37.70000076293945 404.75 47.709999084472656" height="27.366582241737035" data-palette-color="#454545"><path d="M17.94-28L17.94 0 10.96 0 10.96-28 0.44-28 0.44-35.01 28.44-35.01 28.44-28 17.94-28ZM38.11-14.94L38.11 0 31.44 0 31.44-36.55 38.11-36.55 38.11-25Q39.3-25.9 40.57-26.28 41.84-26.66 43.16-26.66L43.16-26.66Q45.58-26.66 47.7-25.74 49.83-24.83 51.4-23.23 52.98-21.63 53.89-19.49 54.81-17.36 54.81-14.94L54.81-14.94 54.81 0 48.09 0 48.09-14.94 48.14-14.94Q48.14-15.97 47.75-16.88 47.36-17.8 46.68-18.48 45.99-19.17 45.09-19.56 44.19-19.95 43.16-19.95L43.16-19.95Q42.11-19.95 41.18-19.56 40.26-19.17 39.57-18.48 38.89-17.8 38.5-16.88 38.11-15.97 38.11-14.94L38.11-14.94ZM82.44-21.46L69.94-6.4Q70.33-6.27 70.72-6.24 71.11-6.2 71.5-6.2L71.5-6.2Q72.48-6.2 73.38-6.47 74.29-6.74 75.08-7.24 75.87-7.74 76.5-8.46 77.12-9.18 77.51-10.06L77.51-10.06 82.39-5.15Q81.46-3.83 80.26-2.78 79.05-1.73 77.64-1 76.24-0.27 74.69 0.11 73.14 0.49 71.5 0.49L71.5 0.49Q68.75 0.49 66.32-0.54 63.89-1.56 62.07-3.39 60.25-5.22 59.2-7.75 58.15-10.28 58.15-13.31L58.15-13.31Q58.15-16.41 59.2-18.97 60.25-21.53 62.07-23.34 63.89-25.15 66.32-26.15 68.75-27.15 71.5-27.15L71.5-27.15Q73.14-27.15 74.7-26.76 76.26-26.37 77.67-25.63 79.07-24.9 80.29-23.84 81.51-22.78 82.44-21.46L82.44-21.46ZM65.6-9.84L73.36-20.14Q72.9-20.31 72.44-20.36 71.99-20.41 71.5-20.41L71.5-20.41Q70.14-20.41 68.93-19.91 67.72-19.41 66.83-18.48 65.94-17.55 65.42-16.25 64.91-14.94 64.91-13.31L64.91-13.31Q64.91-12.94 64.95-12.48 64.99-12.01 65.07-11.54 65.16-11.06 65.28-10.62 65.4-10.18 65.6-9.84L65.6-9.84ZM124.99-7.01L124.99 0 100.48 0 100.48-35.01 107.49-35.01 107.49-7.01 124.99-7.01ZM150.16-21.46L137.66-6.4Q138.05-6.27 138.44-6.24 138.83-6.2 139.22-6.2L139.22-6.2Q140.2-6.2 141.1-6.47 142-6.74 142.8-7.24 143.59-7.74 144.21-8.46 144.84-9.18 145.23-10.06L145.23-10.06 150.11-5.15Q149.18-3.83 147.97-2.78 146.76-1.73 145.36-1 143.96-0.27 142.41 0.11 140.86 0.49 139.22 0.49L139.22 0.49Q136.46 0.49 134.03-0.54 131.6-1.56 129.78-3.39 127.97-5.22 126.92-7.75 125.87-10.28 125.87-13.31L125.87-13.31Q125.87-16.41 126.92-18.97 127.97-21.53 129.78-23.34 131.6-25.15 134.03-26.15 136.46-27.15 139.22-27.15L139.22-27.15Q140.86-27.15 142.42-26.76 143.98-26.37 145.39-25.63 146.79-24.9 148.01-23.84 149.23-22.78 150.16-21.46L150.16-21.46ZM133.31-9.84L141.08-20.14Q140.61-20.31 140.16-20.36 139.71-20.41 139.22-20.41L139.22-20.41Q137.85-20.41 136.65-19.91 135.44-19.41 134.55-18.48 133.65-17.55 133.14-16.25 132.63-14.94 132.63-13.31L132.63-13.31Q132.63-12.94 132.67-12.48 132.7-12.01 132.79-11.54 132.87-11.06 133-10.62 133.12-10.18 133.31-9.84L133.31-9.84ZM178.62-26.1L178.62 0 177.01 0 174.42-3.59Q173.47-2.73 172.41-1.99 171.35-1.25 170.18-0.7 169-0.15 167.77 0.17 166.54 0.49 165.27 0.49L165.27 0.49Q162.51 0.49 160.08-0.44 157.65-1.37 155.83-3.14 154.01-4.91 152.96-7.47 151.91-10.03 151.91-13.31L151.91-13.31Q151.91-16.36 152.96-18.91 154.01-21.46 155.83-23.29 157.65-25.12 160.08-26.14 162.51-27.15 165.27-27.15L165.27-27.15Q166.54-27.15 167.78-26.83 169.03-26.51 170.2-25.95 171.37-25.39 172.43-24.63 173.5-23.88 174.42-23L174.42-23 177.01-26.1 178.62-26.1ZM171.91-13.31L171.91-13.31Q171.91-14.67 171.38-15.95 170.86-17.24 169.96-18.23 169.05-19.21 167.84-19.81 166.64-20.41 165.27-20.41L165.27-20.41Q163.9-20.41 162.69-19.95 161.48-19.48 160.59-18.58 159.7-17.68 159.19-16.35 158.68-15.01 158.68-13.31L158.68-13.31Q158.68-11.6 159.19-10.27 159.7-8.94 160.59-8.03 161.48-7.13 162.69-6.67 163.9-6.2 165.27-6.2L165.27-6.2Q166.64-6.2 167.84-6.8 169.05-7.4 169.96-8.39 170.86-9.38 171.38-10.66 171.91-11.94 171.91-13.31ZM190.36-14.4L190.36 0 183.7 0 183.7-26.15 185.31-26.15 187.51-23.05Q189.12-24.51 191.17-25.31 193.22-26.1 195.42-26.1L195.42-26.1 201.3-26.1 201.3-19.46 195.42-19.46Q194.37-19.46 193.44-19.07 192.51-18.68 191.83-17.99 191.14-17.31 190.75-16.38 190.36-15.45 190.36-14.4L190.36-14.4ZM211.06-14.94L211.06 0 204.4 0 204.4-26.15 206.01-26.15 208.21-23.61Q209.82-25.07 211.86-25.87 213.9-26.66 216.12-26.66L216.12-26.66Q218.51-26.66 220.63-25.74 222.76-24.83 224.35-23.23 225.93-21.63 226.85-19.49 227.76-17.36 227.76-14.94L227.76-14.94 227.76 0 221.1 0 221.1-14.94Q221.1-15.97 220.71-16.88 220.32-17.8 219.63-18.48 218.95-19.17 218.05-19.56 217.14-19.95 216.12-19.95L216.12-19.95Q215.07-19.95 214.14-19.56 213.21-19.17 212.53-18.48 211.85-17.8 211.45-16.88 211.06-15.97 211.06-14.94L211.06-14.94ZM240.36-33.25L240.36-33.25Q240.36-32.32 240-31.52 239.65-30.71 239.04-30.11 238.43-29.52 237.61-29.16 236.79-28.81 235.87-28.81L235.87-28.81Q234.94-28.81 234.12-29.16 233.3-29.52 232.7-30.11 232.11-30.71 231.75-31.52 231.4-32.32 231.4-33.25L231.4-33.25Q231.4-34.16 231.75-34.97 232.11-35.79 232.7-36.39 233.3-36.99 234.12-37.34 234.94-37.7 235.87-37.7L235.87-37.7Q236.79-37.7 237.61-37.34 238.43-36.99 239.04-36.39 239.65-35.79 240-34.97 240.36-34.16 240.36-33.25ZM239.21-26.15L239.21 0 232.5 0 232.5-26.15 239.21-26.15ZM250.95-14.94L250.95 0 244.29 0 244.29-26.15 245.9-26.15 248.1-23.61Q249.71-25.07 251.75-25.87 253.78-26.66 256.01-26.66L256.01-26.66Q258.4-26.66 260.52-25.74 262.65-24.83 264.23-23.23 265.82-21.63 266.74-19.49 267.65-17.36 267.65-14.94L267.65-14.94 267.65 0 260.99 0 260.99-14.94Q260.99-15.97 260.6-16.88 260.2-17.8 259.52-18.48 258.84-19.17 257.93-19.56 257.03-19.95 256.01-19.95L256.01-19.95Q254.96-19.95 254.03-19.56 253.1-19.17 252.42-18.48 251.73-17.8 251.34-16.88 250.95-15.97 250.95-14.94L250.95-14.94ZM290.99-13.31L290.99-13.31Q290.99-14.67 290.46-15.95 289.94-17.24 289.04-18.23 288.13-19.21 286.92-19.81 285.71-20.41 284.35-20.41L284.35-20.41Q282.98-20.41 281.77-19.95 280.56-19.48 279.67-18.58 278.78-17.68 278.27-16.35 277.76-15.01 277.76-13.31L277.76-13.31Q277.76-11.67 278.27-10.36 278.78-9.06 279.67-8.13 280.56-7.2 281.77-6.7 282.98-6.2 284.35-6.2L284.35-6.2Q285.71-6.2 286.92-6.8 288.13-7.4 289.04-8.39 289.94-9.38 290.46-10.66 290.99-11.94 290.99-13.31ZM297.7-26.1L297.7-3.3Q297.7-0.54 296.65 1.88 295.6 4.3 293.78 6.1 291.96 7.91 289.54 8.96 287.11 10.01 284.35 10.01L284.35 10.01 281 9.96 281 3.3 284.3 3.34Q285.86 3.34 286.96 2.94 288.06 2.54 288.82 1.84 289.57 1.15 290.02 0.24 290.48-0.66 290.74-1.66L290.74-1.66Q290.35-1.03 289.62-0.62 288.89-0.22 288 0.04 287.11 0.29 286.14 0.39 285.18 0.49 284.35 0.49L284.35 0.49Q281.59 0.49 279.16-0.46 276.73-1.42 274.91-3.19 273.09-4.96 272.04-7.52 270.99-10.08 270.99-13.31L270.99-13.31Q270.99-16.26 272.04-18.8 273.09-21.34 274.91-23.19 276.73-25.05 279.16-26.1 281.59-27.15 284.35-27.15L284.35-27.15Q285.62-27.15 286.86-26.83 288.11-26.51 289.28-25.95 290.45-25.39 291.51-24.63 292.58-23.88 293.5-23L293.5-23 296.09-26.1 297.7-26.1ZM324.48-13.99L324.48 0 317.47 0 317.47-35.01 324.48-35.01 324.48-21 338.47-21 338.47-35.01 345.48-35.01 345.48 0 338.47 0 338.47-13.99 324.48-13.99ZM372.33 0L370.13-3.05Q369.33-2.32 368.41-1.67 367.49-1.03 366.49-0.55 365.49-0.07 364.43 0.21 363.37 0.49 362.27 0.49L362.27 0.49Q359.85 0.49 357.73-0.37 355.6-1.22 354.01-2.8 352.41-4.37 351.49-6.63 350.58-8.89 350.58-11.69L350.58-11.69 350.58-26.15 357.22-26.15 357.22-11.69Q357.22-10.38 357.62-9.34 358.02-8.3 358.71-7.59 359.39-6.88 360.3-6.52 361.22-6.15 362.27-6.15L362.27-6.15Q363.3-6.15 364.21-6.63 365.13-7.1 365.81-7.89 366.49-8.67 366.88-9.66 367.27-10.64 367.27-11.69L367.27-11.69 367.27-26.15 373.94-26.15 373.94 0 372.33 0ZM405.19-13.31L405.19-13.31Q405.19-10.23 404.14-7.69 403.09-5.15 401.28-3.33 399.47-1.51 397.05-0.51 394.62 0.49 391.83 0.49L391.83 0.49Q389.07 0.49 386.64-0.54 384.22-1.56 382.4-3.39 380.58-5.22 379.53-7.75 378.48-10.28 378.48-13.31L378.48-13.31 378.48-36.55 385.17-36.55 385.17-24.34Q385.7-25.02 386.47-25.56 387.24-26.1 388.13-26.44 389.03-26.78 389.98-26.97 390.93-27.15 391.83-27.15L391.83-27.15Q394.62-27.15 397.05-26.11 399.47-25.07 401.28-23.22 403.09-21.36 404.14-18.84 405.19-16.31 405.19-13.31ZM398.47-13.31L398.47-13.31Q398.47-14.82 397.95-16.13 397.42-17.43 396.52-18.38 395.62-19.34 394.41-19.87 393.2-20.41 391.83-20.41L391.83-20.41Q390.47-20.41 389.26-19.81 388.05-19.21 387.15-18.23 386.24-17.24 385.73-15.95 385.22-14.67 385.22-13.31L385.22-13.31Q385.22-11.79 385.73-10.5 386.24-9.2 387.15-8.25 388.05-7.3 389.26-6.75 390.47-6.2 391.83-6.2L391.83-6.2Q393.2-6.2 394.41-6.75 395.62-7.3 396.52-8.25 397.42-9.2 397.95-10.5 398.47-11.79 398.47-13.31Z" opacity="1" transform="matrix(1,0,0,1,0,0)" fill="#ffffff" class="slogan-text-1" data-fill-palette-color="secondary" id="text-1"></path></svg></g></svg></g></svg></g></svg></g><g><svg viewBox="0 0 218.37823054539348 282.22169861600383" height="282.22169861600383" width="218.37823054539348"><g><svg xmlns="http://www.w3.org/2000/svg" xmlns:xlink="http://www.w3.org/1999/xlink" version="1.1" x="0" y="0" viewBox="12.982999801635742 1 75.68599700927734 97.81300354003906" enable-background="new 0 0 100 100" xml:space="preserve" height="282.22169861600383" width="218.37823054539348" class="icon-icon-0" data-fill-palette-color="accent" id="icon-0"><g fill="#454545" data-fill-palette-color="accent"><polygon fill-rule="evenodd" clip-rule="evenodd" points="12.983,10.59 30.001,98.813 24.129,39.764 53.15,37.872 53.096,27.989    64.549,1 53.622,18.977  " fill="#ffffff" data-fill-palette-color="accent"></polygon><polygon fill-rule="evenodd" clip-rule="evenodd" points="59.389,54.548 64.549,1.007 55.809,40.723 36.197,41.768 37.767,62.23    30.001,98.813 42.058,58.914  " fill="#ffffff" data-fill-palette-color="accent"></polygon><polygon fill-rule="evenodd" clip-rule="evenodd" points="62.8,67.182 63.349,56.729 47.37,60.484 47.338,72.281 30.001,98.813    51.681,71.197  " fill="#ffffff" data-fill-palette-color="accent"></polygon><polygon fill-rule="evenodd" clip-rule="evenodd" points="65.711,62.394 80.552,57.663 82.061,45.131 66.162,47.226  " fill="#ffffff" data-fill-palette-color="accent"></polygon><polygon fill-rule="evenodd" clip-rule="evenodd" points="72.07,44.502 83.058,43.085 84.639,32.807 76.56,32.434 64.549,1    72.979,31.967  " fill="#ffffff" data-fill-palette-color="accent"></polygon><polygon fill-rule="evenodd" clip-rule="evenodd" points="87.413,31.294 88.669,21.788 79.125,19.094 64.549,1 79.032,23.437    78.61,30.437  " fill="#ffffff" data-fill-palette-color="accent"></polygon></g></svg></g></svg></g></svg></g><defs></defs></svg><rect width="395.5199999999999" height="177.0542514436394" fill="none" stroke="none" visibility="hidden"></rect></g></svg></g></svg>